<svg width="186" height="316" viewBox="0 0 186 316" fill="none" xmlns="http://www.w3.org/2000/svg">
<path d="M0 58H161C174.807 58 186 69.1929 186 83C186 96.8071 174.807 108 161 108H0V58Z" fill="#F7F8FA"/>
<g clip-path="url(#clip0_1_119)">
<path d="M48 78C50.5773 78 52.6666 75.9107 52.6666 73.3333C52.6666 70.756 50.5773 68.6667 48 68.6667C45.4227 68.6667 43.3333 70.756 43.3333 73.3333C43.3333 75.9107 45.4227 78 48 78Z" stroke="#445EE2" stroke-width="1.5" stroke-linecap="round" stroke-linejoin="round"/>
<path d="M45.4734 77.26L44.6667 83.3333L48 81.3333L51.3334 83.3333L50.5267 77.2533" stroke="#445EE2" stroke-width="1.5" stroke-linecap="round" stroke-linejoin="round"/>
</g>
<path d="M75.912 81.192C75.0907 81.192 74.3653 81.0533 73.736 80.776C73.1067 80.488 72.6107 80.0827 72.248 79.56C71.8853 79.0267 71.6987 78.3813 71.688 77.624H73.848C73.8693 78.1467 74.056 78.5893 74.408 78.952C74.7707 79.304 75.2667 79.48 75.896 79.48C76.44 79.48 76.872 79.352 77.192 79.096C77.512 78.8293 77.672 78.4773 77.672 78.04C77.672 77.5813 77.528 77.224 77.24 76.968C76.9627 76.712 76.5893 76.504 76.12 76.344C75.6507 76.184 75.1493 76.0133 74.616 75.832C73.752 75.5333 73.0907 75.1493 72.632 74.68C72.184 74.2107 71.96 73.5867 71.96 72.808C71.9493 72.1467 72.104 71.5813 72.424 71.112C72.7547 70.632 73.2027 70.264 73.768 70.008C74.3333 69.7413 74.984 69.608 75.72 69.608C76.4667 69.608 77.1227 69.7413 77.688 70.008C78.264 70.2747 78.712 70.648 79.032 71.128C79.3627 71.608 79.5387 72.1787 79.56 72.84H77.368C77.3573 72.4453 77.2027 72.0987 76.904 71.8C76.616 71.4907 76.2107 71.336 75.688 71.336C75.24 71.3253 74.8613 71.4373 74.552 71.672C74.2533 71.896 74.104 72.2267 74.104 72.664C74.104 73.0373 74.2213 73.336 74.456 73.56C74.6907 73.7733 75.0107 73.9547 75.416 74.104C75.8213 74.2533 76.2853 74.4133 76.808 74.584C77.3627 74.776 77.8693 75 78.328 75.256C78.7867 75.512 79.1547 75.8533 79.432 76.28C79.7093 76.696 79.848 77.2347 79.848 77.896C79.848 78.4827 79.6987 79.0267 79.4 79.528C79.1013 80.0293 78.6587 80.4347 78.072 80.744C77.4853 81.0427 76.7653 81.192 75.912 81.192ZM81.2669 81V69.48H83.3149V76.28L86.1309 73.064H88.5629L85.3149 76.68L89.0909 81H86.5309L83.3149 77.016V81H81.2669ZM91.1446 71.832C90.7713 71.832 90.462 71.72 90.2166 71.496C89.982 71.272 89.8646 70.9893 89.8646 70.648C89.8646 70.3067 89.982 70.0293 90.2166 69.816C90.462 69.592 90.7713 69.48 91.1446 69.48C91.518 69.48 91.822 69.592 92.0566 69.816C92.302 70.0293 92.4246 70.3067 92.4246 70.648C92.4246 70.9893 92.302 71.272 92.0566 71.496C91.822 71.72 91.518 71.832 91.1446 71.832ZM90.1206 81V73.064H92.1686V81H90.1206ZM93.9863 81V69.48H96.0343V81H93.9863ZM97.8069 81V69.48H99.8549V81H97.8069ZM107.776 81V71.448H104.512V69.8H113.104V71.448H109.824V81H107.776ZM116.672 81.192C115.872 81.192 115.162 81.0213 114.544 80.68C113.925 80.3387 113.44 79.8587 113.088 79.24C112.736 78.6213 112.56 77.9067 112.56 77.096C112.56 76.2747 112.73 75.544 113.072 74.904C113.424 74.264 113.904 73.768 114.512 73.416C115.13 73.0533 115.856 72.872 116.688 72.872C117.466 72.872 118.154 73.0427 118.752 73.384C119.349 73.7253 119.813 74.1947 120.144 74.792C120.485 75.3787 120.656 76.0347 120.656 76.76C120.656 76.8773 120.65 77 120.64 77.128C120.64 77.256 120.634 77.3893 120.624 77.528H114.592C114.634 78.1467 114.848 78.632 115.232 78.984C115.626 79.336 116.101 79.512 116.656 79.512C117.072 79.512 117.418 79.4213 117.696 79.24C117.984 79.048 118.197 78.8027 118.336 78.504H120.416C120.266 79.0053 120.016 79.464 119.664 79.88C119.322 80.2853 118.896 80.6053 118.384 80.84C117.882 81.0747 117.312 81.192 116.672 81.192ZM116.688 74.536C116.186 74.536 115.744 74.68 115.36 74.968C114.976 75.2453 114.73 75.672 114.624 76.248H118.576C118.544 75.7253 118.352 75.3093 118 75C117.648 74.6907 117.21 74.536 116.688 74.536ZM125.338 81.192C124.634 81.192 124.015 81.08 123.482 80.856C122.949 80.6213 122.522 80.3013 122.202 79.896C121.882 79.4907 121.69 79.0213 121.626 78.488H123.69C123.754 78.7973 123.925 79.064 124.202 79.288C124.49 79.5013 124.858 79.608 125.306 79.608C125.754 79.608 126.079 79.5173 126.282 79.336C126.495 79.1547 126.602 78.9467 126.602 78.712C126.602 78.3707 126.453 78.1413 126.154 78.024C125.855 77.896 125.439 77.7733 124.906 77.656C124.565 77.5813 124.218 77.4907 123.866 77.384C123.514 77.2773 123.189 77.144 122.89 76.984C122.602 76.8133 122.367 76.6 122.186 76.344C122.005 76.0773 121.914 75.752 121.914 75.368C121.914 74.664 122.191 74.072 122.746 73.592C123.311 73.112 124.101 72.872 125.114 72.872C126.053 72.872 126.799 73.0907 127.354 73.528C127.919 73.9653 128.255 74.568 128.362 75.336H126.426C126.309 74.7493 125.866 74.456 125.098 74.456C124.714 74.456 124.415 74.5307 124.202 74.68C123.999 74.8293 123.898 75.016 123.898 75.24C123.898 75.4747 124.053 75.6613 124.362 75.8C124.671 75.9387 125.082 76.0667 125.594 76.184C126.149 76.312 126.655 76.456 127.114 76.616C127.583 76.7653 127.957 76.9947 128.234 77.304C128.511 77.6027 128.65 78.0347 128.65 78.6C128.661 79.0907 128.533 79.5333 128.266 79.928C127.999 80.3227 127.615 80.632 127.114 80.856C126.613 81.08 126.021 81.192 125.338 81.192ZM133.43 81C132.598 81 131.932 80.7973 131.43 80.392C130.929 79.9867 130.678 79.2667 130.678 78.232V74.776H129.318V73.064H130.678L130.918 70.936H132.726V73.064H134.87V74.776H132.726V78.248C132.726 78.632 132.806 78.8987 132.966 79.048C133.137 79.1867 133.425 79.256 133.83 79.256H134.822V81H133.43Z" fill="#445EE2"/>
<path d="M52 23.3333V16.6667" stroke="#566474" stroke-linecap="round" stroke-linejoin="round"/>
<path d="M48 23.3333V12.6667" stroke="#566474" stroke-linecap="round" stroke-linejoin="round"/>
<path d="M44 23.3333V19.3333" stroke="#566474" stroke-linecap="round" stroke-linejoin="round"/>
<path d="M72.136 23V11.8H75.768C77.08 11.8 78.1573 12.0293 79 12.488C79.8533 12.9467 80.4827 13.5973 80.888 14.44C81.304 15.272 81.512 16.264 81.512 17.416C81.512 18.5573 81.304 19.5493 80.888 20.392C80.4827 21.224 79.8533 21.8693 79 22.328C78.1573 22.776 77.08 23 75.768 23H72.136ZM73.832 21.56H75.704C76.7173 21.56 77.5173 21.3947 78.104 21.064C78.7013 20.7333 79.128 20.2587 79.384 19.64C79.6507 19.0213 79.784 18.28 79.784 17.416C79.784 16.552 79.6507 15.8053 79.384 15.176C79.128 14.5467 78.7013 14.0667 78.104 13.736C77.5173 13.3947 76.7173 13.224 75.704 13.224H73.832V21.56ZM85.69 23.192C85.018 23.192 84.4633 23.08 84.026 22.856C83.5887 22.632 83.2633 22.3387 83.05 21.976C82.8367 21.6027 82.73 21.1973 82.73 20.76C82.73 19.992 83.0287 19.384 83.626 18.936C84.2233 18.488 85.0767 18.264 86.186 18.264H88.266V18.12C88.266 17.5013 88.0953 17.0373 87.754 16.728C87.4233 16.4187 86.9913 16.264 86.458 16.264C85.9887 16.264 85.578 16.3813 85.226 16.616C84.8847 16.84 84.6767 17.176 84.602 17.624H82.906C82.9593 17.048 83.1513 16.5573 83.482 16.152C83.8233 15.736 84.25 15.4213 84.762 15.208C85.2847 14.984 85.8553 14.872 86.474 14.872C87.5833 14.872 88.442 15.1653 89.05 15.752C89.658 16.328 89.962 17.1173 89.962 18.12V23H88.49L88.346 21.64C88.122 22.0773 87.7967 22.4453 87.37 22.744C86.9433 23.0427 86.3833 23.192 85.69 23.192ZM86.026 21.816C86.4847 21.816 86.8687 21.7093 87.178 21.496C87.498 21.272 87.7433 20.9787 87.914 20.616C88.0953 20.2533 88.2073 19.8533 88.25 19.416H86.362C85.69 19.416 85.21 19.5333 84.922 19.768C84.6447 20.0027 84.506 20.296 84.506 20.648C84.506 21.0107 84.6393 21.2987 84.906 21.512C85.1833 21.7147 85.5567 21.816 86.026 21.816ZM94.7875 23.192C93.7848 23.192 92.9582 22.9467 92.3075 22.456C91.6568 21.9653 91.2835 21.3147 91.1875 20.504H92.8995C92.9848 20.8667 93.1875 21.1813 93.5075 21.448C93.8275 21.704 94.2488 21.832 94.7715 21.832C95.2835 21.832 95.6568 21.7253 95.8915 21.512C96.1262 21.2987 96.2435 21.0533 96.2435 20.776C96.2435 20.3707 96.0782 20.0987 95.7475 19.96C95.4275 19.8107 94.9795 19.6773 94.4035 19.56C93.9555 19.464 93.5075 19.336 93.0595 19.176C92.6222 19.016 92.2542 18.792 91.9555 18.504C91.6675 18.2053 91.5235 17.8053 91.5235 17.304C91.5235 16.6107 91.7902 16.0347 92.3235 15.576C92.8568 15.1067 93.6035 14.872 94.5635 14.872C95.4488 14.872 96.1635 15.0853 96.7075 15.512C97.2622 15.9387 97.5875 16.5413 97.6835 17.32H96.0515C95.9982 16.9787 95.8382 16.712 95.5715 16.52C95.3155 16.328 94.9688 16.232 94.5315 16.232C94.1048 16.232 93.7742 16.3227 93.5395 16.504C93.3048 16.6747 93.1875 16.8987 93.1875 17.176C93.1875 17.4533 93.3475 17.672 93.6675 17.832C93.9982 17.992 94.4302 18.136 94.9635 18.264C95.4968 18.3813 95.9875 18.52 96.4355 18.68C96.8942 18.8293 97.2622 19.0533 97.5395 19.352C97.8168 19.6507 97.9555 20.088 97.9555 20.664C97.9662 21.3893 97.6835 21.992 97.1075 22.472C96.5422 22.952 95.7688 23.192 94.7875 23.192ZM99.487 23V11.48H101.183V16.344C101.45 15.8853 101.818 15.528 102.287 15.272C102.767 15.0053 103.295 14.872 103.871 14.872C104.82 14.872 105.567 15.1707 106.111 15.768C106.655 16.3653 106.927 17.256 106.927 18.44V23H105.247V18.616C105.247 17.08 104.634 16.312 103.407 16.312C102.767 16.312 102.234 16.536 101.807 16.984C101.391 17.432 101.183 18.072 101.183 18.904V23H99.487ZM113.069 23.192C112.45 23.192 111.901 23.0693 111.421 22.824C110.951 22.5787 110.578 22.232 110.301 21.784L110.125 23H108.605V11.48H110.301V16.296C110.557 15.9227 110.909 15.592 111.357 15.304C111.805 15.016 112.381 14.872 113.085 14.872C113.853 14.872 114.53 15.0533 115.117 15.416C115.703 15.7787 116.162 16.2747 116.493 16.904C116.834 17.5333 117.005 18.248 117.005 19.048C117.005 19.848 116.834 20.5627 116.493 21.192C116.162 21.8107 115.703 22.3013 115.117 22.664C114.53 23.016 113.847 23.192 113.069 23.192ZM112.781 21.72C113.506 21.72 114.103 21.4747 114.573 20.984C115.042 20.4827 115.277 19.832 115.277 19.032C115.277 18.5093 115.17 18.0453 114.957 17.64C114.743 17.2347 114.45 16.92 114.077 16.696C113.703 16.4613 113.271 16.344 112.781 16.344C112.055 16.344 111.458 16.5947 110.989 17.096C110.53 17.5973 110.301 18.2427 110.301 19.032C110.301 19.832 110.53 20.4827 110.989 20.984C111.458 21.4747 112.055 21.72 112.781 21.72ZM122.231 23.192C121.474 23.192 120.791 23.0213 120.183 22.68C119.586 22.328 119.111 21.8427 118.759 21.224C118.407 20.5947 118.231 19.864 118.231 19.032C118.231 18.2 118.407 17.4747 118.759 16.856C119.122 16.2267 119.607 15.7413 120.215 15.4C120.823 15.048 121.5 14.872 122.247 14.872C123.004 14.872 123.682 15.048 124.279 15.4C124.887 15.7413 125.367 16.2267 125.719 16.856C126.082 17.4747 126.263 18.2 126.263 19.032C126.263 19.864 126.082 20.5947 125.719 21.224C125.367 21.8427 124.887 22.328 124.279 22.68C123.671 23.0213 122.988 23.192 122.231 23.192ZM122.231 21.736C122.636 21.736 123.01 21.6347 123.351 21.432C123.703 21.2293 123.986 20.9307 124.199 20.536C124.412 20.1307 124.519 19.6293 124.519 19.032C124.519 18.4347 124.412 17.9387 124.199 17.544C123.996 17.1387 123.719 16.8347 123.367 16.632C123.026 16.4293 122.652 16.328 122.247 16.328C121.842 16.328 121.463 16.4293 121.111 16.632C120.77 16.8347 120.492 17.1387 120.279 17.544C120.066 17.9387 119.959 18.4347 119.959 19.032C119.959 19.6293 120.066 20.1307 120.279 20.536C120.492 20.9307 120.77 21.2293 121.111 21.432C121.452 21.6347 121.826 21.736 122.231 21.736ZM130.465 23.192C129.793 23.192 129.238 23.08 128.801 22.856C128.364 22.632 128.038 22.3387 127.825 21.976C127.612 21.6027 127.505 21.1973 127.505 20.76C127.505 19.992 127.804 19.384 128.401 18.936C128.998 18.488 129.852 18.264 130.961 18.264H133.041V18.12C133.041 17.5013 132.87 17.0373 132.529 16.728C132.198 16.4187 131.766 16.264 131.233 16.264C130.764 16.264 130.353 16.3813 130.001 16.616C129.66 16.84 129.452 17.176 129.377 17.624H127.681C127.734 17.048 127.926 16.5573 128.257 16.152C128.598 15.736 129.025 15.4213 129.537 15.208C130.06 14.984 130.63 14.872 131.249 14.872C132.358 14.872 133.217 15.1653 133.825 15.752C134.433 16.328 134.737 17.1173 134.737 18.12V23H133.265L133.121 21.64C132.897 22.0773 132.572 22.4453 132.145 22.744C131.718 23.0427 131.158 23.192 130.465 23.192ZM130.801 21.816C131.26 21.816 131.644 21.7093 131.953 21.496C132.273 21.272 132.518 20.9787 132.689 20.616C132.87 20.2533 132.982 19.8533 133.025 19.416H131.137C130.465 19.416 129.985 19.5333 129.697 19.768C129.42 20.0027 129.281 20.296 129.281 20.648C129.281 21.0107 129.414 21.2987 129.681 21.512C129.958 21.7147 130.332 21.816 130.801 21.816ZM136.395 23V15.064H137.915L138.059 16.568C138.336 16.0453 138.72 15.6347 139.211 15.336C139.712 15.0267 140.315 14.872 141.019 14.872V16.648H140.555C140.085 16.648 139.664 16.728 139.291 16.888C138.928 17.0373 138.635 17.2987 138.411 17.672C138.197 18.0347 138.091 18.5413 138.091 19.192V23H136.395ZM145.55 23.192C144.782 23.192 144.105 23.0107 143.518 22.648C142.931 22.2853 142.473 21.7893 142.142 21.16C141.811 20.5307 141.646 19.816 141.646 19.016C141.646 18.216 141.811 17.5067 142.142 16.888C142.473 16.2587 142.931 15.768 143.518 15.416C144.115 15.0533 144.798 14.872 145.566 14.872C146.195 14.872 146.745 14.9947 147.214 15.24C147.694 15.4853 148.067 15.832 148.334 16.28V11.48H150.03V23H148.51L148.334 21.768C148.078 22.1413 147.726 22.472 147.278 22.76C146.83 23.048 146.254 23.192 145.55 23.192ZM145.854 21.72C146.579 21.72 147.171 21.4693 147.63 20.968C148.099 20.4667 148.334 19.8213 148.334 19.032C148.334 18.232 148.099 17.5867 147.63 17.096C147.171 16.5947 146.579 16.344 145.854 16.344C145.129 16.344 144.531 16.5947 144.062 17.096C143.593 17.5867 143.358 18.232 143.358 19.032C143.358 19.5547 143.465 20.0187 143.678 20.424C143.891 20.8293 144.185 21.1493 144.558 21.384C144.942 21.608 145.374 21.72 145.854 21.72Z" fill="#566474"/>
<path d="M48.6667 129.025H44C43.6464 129.025 43.3073 129.16 43.0572 129.4C42.8072 129.641 42.6667 129.966 42.6667 130.306V140.551C42.6667 140.891 42.8072 141.217 43.0572 141.457C43.3073 141.697 43.6464 141.832 44 141.832H52C52.3536 141.832 52.6928 141.697 52.9428 141.457C53.1929 141.217 53.3334 140.891 53.3334 140.551V133.508L48.6667 129.025Z" stroke="#566474" stroke-linecap="round" stroke-linejoin="round"/>
<path d="M48.6667 129.025V133.508H53.3334" stroke="#566474" stroke-linecap="round" stroke-linejoin="round"/>
<path d="M72.184 146V134.8H73.528V146H72.184ZM75.5028 146V138.064H76.7188L76.7988 139.488C77.0548 138.987 77.4228 138.592 77.9028 138.304C78.3828 138.016 78.9268 137.872 79.5348 137.872C80.4734 137.872 81.2201 138.16 81.7748 138.736C82.3401 139.301 82.6228 140.176 82.6228 141.36V146H81.2788V141.504C81.2788 139.851 80.5961 139.024 79.2308 139.024C78.5481 139.024 77.9774 139.275 77.5188 139.776C77.0708 140.267 76.8468 140.971 76.8468 141.888V146H75.5028ZM87.475 146C86.7497 146 86.179 145.824 85.763 145.472C85.347 145.12 85.139 144.485 85.139 143.568V139.2H83.763V138.064H85.139L85.315 136.16H86.483V138.064H88.819V139.2H86.483V143.568C86.483 144.069 86.5843 144.411 86.787 144.592C86.9897 144.763 87.347 144.848 87.859 144.848H88.691V146H87.475ZM93.5558 146.192C92.7984 146.192 92.1264 146.021 91.5398 145.68C90.9531 145.328 90.4891 144.843 90.1478 144.224C89.8171 143.605 89.6518 142.875 89.6518 142.032C89.6518 141.2 89.8171 140.475 90.1478 139.856C90.4784 139.227 90.9371 138.741 91.5238 138.4C92.1211 138.048 92.8091 137.872 93.5878 137.872C94.3558 137.872 95.0171 138.048 95.5718 138.4C96.1371 138.741 96.5691 139.195 96.8678 139.76C97.1664 140.325 97.3158 140.933 97.3158 141.584C97.3158 141.701 97.3104 141.819 97.2998 141.936C97.2998 142.053 97.2998 142.187 97.2998 142.336H90.9798C91.0118 142.944 91.1504 143.451 91.3958 143.856C91.6518 144.251 91.9664 144.549 92.3398 144.752C92.7238 144.955 93.1291 145.056 93.5558 145.056C94.1104 145.056 94.5744 144.928 94.9478 144.672C95.3211 144.416 95.5931 144.069 95.7638 143.632H97.0918C96.8784 144.368 96.4678 144.981 95.8598 145.472C95.2624 145.952 94.4944 146.192 93.5558 146.192ZM93.5558 139.008C92.9158 139.008 92.3451 139.205 91.8438 139.6C91.3531 139.984 91.0704 140.549 90.9958 141.296H95.9878C95.9558 140.581 95.7104 140.021 95.2518 139.616C94.7931 139.211 94.2278 139.008 93.5558 139.008ZM98.7771 146V138.064H99.9931L100.105 139.584C100.35 139.061 100.724 138.645 101.225 138.336C101.726 138.027 102.345 137.872 103.081 137.872V139.28H102.713C102.244 139.28 101.812 139.365 101.417 139.536C101.022 139.696 100.708 139.973 100.473 140.368C100.238 140.763 100.121 141.307 100.121 142V146H98.7771ZM104.27 146V138.064H105.486L105.566 139.488C105.822 138.987 106.19 138.592 106.67 138.304C107.15 138.016 107.694 137.872 108.302 137.872C109.24 137.872 109.987 138.16 110.542 138.736C111.107 139.301 111.39 140.176 111.39 141.36V146H110.046V141.504C110.046 139.851 109.363 139.024 107.998 139.024C107.315 139.024 106.744 139.275 106.286 139.776C105.838 140.267 105.614 140.971 105.614 141.888V146H104.27ZM116.146 146.192C115.197 146.192 114.407 145.952 113.778 145.472C113.149 144.992 112.781 144.341 112.674 143.52H114.05C114.135 143.936 114.354 144.299 114.706 144.608C115.069 144.907 115.554 145.056 116.162 145.056C116.727 145.056 117.143 144.939 117.41 144.704C117.677 144.459 117.81 144.171 117.81 143.84C117.81 143.36 117.634 143.04 117.282 142.88C116.941 142.72 116.455 142.576 115.826 142.448C115.399 142.363 114.973 142.24 114.546 142.08C114.119 141.92 113.762 141.696 113.474 141.408C113.186 141.109 113.042 140.72 113.042 140.24C113.042 139.547 113.298 138.981 113.81 138.544C114.333 138.096 115.037 137.872 115.922 137.872C116.765 137.872 117.453 138.085 117.986 138.512C118.53 138.928 118.845 139.525 118.93 140.304H117.602C117.549 139.899 117.373 139.584 117.074 139.36C116.786 139.125 116.397 139.008 115.906 139.008C115.426 139.008 115.053 139.109 114.786 139.312C114.53 139.515 114.402 139.781 114.402 140.112C114.402 140.432 114.567 140.683 114.898 140.864C115.239 141.045 115.698 141.2 116.274 141.328C116.765 141.435 117.229 141.568 117.666 141.728C118.114 141.877 118.477 142.107 118.754 142.416C119.042 142.715 119.186 143.152 119.186 143.728C119.197 144.443 118.925 145.035 118.37 145.504C117.826 145.963 117.085 146.192 116.146 146.192ZM120.786 146V134.48H122.13V139.424C122.397 138.933 122.775 138.555 123.266 138.288C123.757 138.011 124.29 137.872 124.866 137.872C125.783 137.872 126.519 138.16 127.074 138.736C127.629 139.301 127.906 140.176 127.906 141.36V146H126.578V141.504C126.578 139.851 125.911 139.024 124.578 139.024C123.885 139.024 123.303 139.275 122.834 139.776C122.365 140.267 122.13 140.971 122.13 141.888V146H120.786ZM130.438 136.304C130.171 136.304 129.947 136.219 129.766 136.048C129.595 135.867 129.51 135.643 129.51 135.376C129.51 135.12 129.595 134.907 129.766 134.736C129.947 134.565 130.171 134.48 130.438 134.48C130.694 134.48 130.913 134.565 131.094 134.736C131.275 134.907 131.366 135.12 131.366 135.376C131.366 135.643 131.275 135.867 131.094 136.048C130.913 136.219 130.694 136.304 130.438 136.304ZM129.766 146V138.064H131.11V146H129.766ZM133.13 149.52V138.064H134.346L134.474 139.376C134.73 138.992 135.093 138.645 135.562 138.336C136.042 138.027 136.65 137.872 137.386 137.872C138.176 137.872 138.864 138.053 139.45 138.416C140.037 138.779 140.49 139.275 140.81 139.904C141.141 140.533 141.306 141.248 141.306 142.048C141.306 142.848 141.141 143.563 140.81 144.192C140.49 144.811 140.032 145.301 139.434 145.664C138.848 146.016 138.16 146.192 137.37 146.192C136.72 146.192 136.138 146.059 135.626 145.792C135.125 145.525 134.741 145.152 134.474 144.672V149.52H133.13ZM137.226 145.024C137.76 145.024 138.229 144.901 138.634 144.656C139.04 144.4 139.36 144.048 139.594 143.6C139.829 143.152 139.946 142.629 139.946 142.032C139.946 141.435 139.829 140.912 139.594 140.464C139.36 140.016 139.04 139.669 138.634 139.424C138.229 139.168 137.76 139.04 137.226 139.04C136.693 139.04 136.224 139.168 135.818 139.424C135.413 139.669 135.093 140.016 134.858 140.464C134.624 140.912 134.506 141.435 134.506 142.032C134.506 142.629 134.624 143.152 134.858 143.6C135.093 144.048 135.413 144.4 135.818 144.656C136.224 144.901 136.693 145.024 137.226 145.024ZM145.897 146.192C144.948 146.192 144.158 145.952 143.529 145.472C142.9 144.992 142.532 144.341 142.425 143.52H143.801C143.886 143.936 144.105 144.299 144.457 144.608C144.82 144.907 145.305 145.056 145.913 145.056C146.478 145.056 146.894 144.939 147.161 144.704C147.428 144.459 147.561 144.171 147.561 143.84C147.561 143.36 147.385 143.04 147.033 142.88C146.692 142.72 146.206 142.576 145.577 142.448C145.15 142.363 144.724 142.24 144.297 142.08C143.87 141.92 143.513 141.696 143.225 141.408C142.937 141.109 142.793 140.72 142.793 140.24C142.793 139.547 143.049 138.981 143.561 138.544C144.084 138.096 144.788 137.872 145.673 137.872C146.516 137.872 147.204 138.085 147.737 138.512C148.281 138.928 148.596 139.525 148.681 140.304H147.353C147.3 139.899 147.124 139.584 146.825 139.36C146.537 139.125 146.148 139.008 145.657 139.008C145.177 139.008 144.804 139.109 144.537 139.312C144.281 139.515 144.153 139.781 144.153 140.112C144.153 140.432 144.318 140.683 144.649 140.864C144.99 141.045 145.449 141.2 146.025 141.328C146.516 141.435 146.98 141.568 147.417 141.728C147.865 141.877 148.228 142.107 148.505 142.416C148.793 142.715 148.937 143.152 148.937 143.728C148.948 144.443 148.676 145.035 148.121 145.504C147.577 145.963 146.836 146.192 145.897 146.192Z" fill="#566474"/>
<defs>
<clipPath id="clip0_1_119">
<rect width="16" height="16" fill="white" transform="translate(40 68)"/>
</clipPath>
</defs>
</svg>
