<svg width="111" height="28" viewBox="0 0 111 28" fill="none" xmlns="http://www.w3.org/2000/svg">
<path d="M12 19.3333V12.6667" stroke="#566474" stroke-linecap="round" stroke-linejoin="round"/>
<path d="M8 19.3333V8.66666" stroke="#566474" stroke-linecap="round" stroke-linejoin="round"/>
<path d="M4 19.3333V15.3333" stroke="#566474" stroke-linecap="round" stroke-linejoin="round"/>
<path d="M32.136 19V7.8H35.768C37.08 7.8 38.1573 8.02933 39 8.488C39.8533 8.94667 40.4827 9.59733 40.888 10.44C41.304 11.272 41.512 12.264 41.512 13.416C41.512 14.5573 41.304 15.5493 40.888 16.392C40.4827 17.224 39.8533 17.8693 39 18.328C38.1573 18.776 37.08 19 35.768 19H32.136ZM33.832 17.56H35.704C36.7173 17.56 37.5173 17.3947 38.104 17.064C38.7013 16.7333 39.128 16.2587 39.384 15.64C39.6507 15.0213 39.784 14.28 39.784 13.416C39.784 12.552 39.6507 11.8053 39.384 11.176C39.128 10.5467 38.7013 10.0667 38.104 9.736C37.5173 9.39467 36.7173 9.224 35.704 9.224H33.832V17.56ZM45.69 19.192C45.018 19.192 44.4633 19.08 44.026 18.856C43.5887 18.632 43.2633 18.3387 43.05 17.976C42.8367 17.6027 42.73 17.1973 42.73 16.76C42.73 15.992 43.0287 15.384 43.626 14.936C44.2233 14.488 45.0767 14.264 46.186 14.264H48.266V14.12C48.266 13.5013 48.0953 13.0373 47.754 12.728C47.4233 12.4187 46.9913 12.264 46.458 12.264C45.9887 12.264 45.578 12.3813 45.226 12.616C44.8847 12.84 44.6767 13.176 44.602 13.624H42.906C42.9593 13.048 43.1513 12.5573 43.482 12.152C43.8233 11.736 44.25 11.4213 44.762 11.208C45.2847 10.984 45.8553 10.872 46.474 10.872C47.5833 10.872 48.442 11.1653 49.05 11.752C49.658 12.328 49.962 13.1173 49.962 14.12V19H48.49L48.346 17.64C48.122 18.0773 47.7967 18.4453 47.37 18.744C46.9433 19.0427 46.3833 19.192 45.69 19.192ZM46.026 17.816C46.4847 17.816 46.8687 17.7093 47.178 17.496C47.498 17.272 47.7433 16.9787 47.914 16.616C48.0953 16.2533 48.2073 15.8533 48.25 15.416H46.362C45.69 15.416 45.21 15.5333 44.922 15.768C44.6447 16.0027 44.506 16.296 44.506 16.648C44.506 17.0107 44.6393 17.2987 44.906 17.512C45.1833 17.7147 45.5567 17.816 46.026 17.816ZM54.7875 19.192C53.7848 19.192 52.9582 18.9467 52.3075 18.456C51.6568 17.9653 51.2835 17.3147 51.1875 16.504H52.8995C52.9848 16.8667 53.1875 17.1813 53.5075 17.448C53.8275 17.704 54.2488 17.832 54.7715 17.832C55.2835 17.832 55.6568 17.7253 55.8915 17.512C56.1262 17.2987 56.2435 17.0533 56.2435 16.776C56.2435 16.3707 56.0782 16.0987 55.7475 15.96C55.4275 15.8107 54.9795 15.6773 54.4035 15.56C53.9555 15.464 53.5075 15.336 53.0595 15.176C52.6222 15.016 52.2542 14.792 51.9555 14.504C51.6675 14.2053 51.5235 13.8053 51.5235 13.304C51.5235 12.6107 51.7902 12.0347 52.3235 11.576C52.8568 11.1067 53.6035 10.872 54.5635 10.872C55.4488 10.872 56.1635 11.0853 56.7075 11.512C57.2622 11.9387 57.5875 12.5413 57.6835 13.32H56.0515C55.9982 12.9787 55.8382 12.712 55.5715 12.52C55.3155 12.328 54.9688 12.232 54.5315 12.232C54.1048 12.232 53.7742 12.3227 53.5395 12.504C53.3048 12.6747 53.1875 12.8987 53.1875 13.176C53.1875 13.4533 53.3475 13.672 53.6675 13.832C53.9982 13.992 54.4302 14.136 54.9635 14.264C55.4968 14.3813 55.9875 14.52 56.4355 14.68C56.8942 14.8293 57.2622 15.0533 57.5395 15.352C57.8168 15.6507 57.9555 16.088 57.9555 16.664C57.9662 17.3893 57.6835 17.992 57.1075 18.472C56.5422 18.952 55.7688 19.192 54.7875 19.192ZM59.487 19V7.48H61.183V12.344C61.4497 11.8853 61.8177 11.528 62.287 11.272C62.767 11.0053 63.295 10.872 63.871 10.872C64.8203 10.872 65.567 11.1707 66.111 11.768C66.655 12.3653 66.927 13.256 66.927 14.44V19H65.247V14.616C65.247 13.08 64.6337 12.312 63.407 12.312C62.767 12.312 62.2337 12.536 61.807 12.984C61.391 13.432 61.183 14.072 61.183 14.904V19H59.487ZM73.0685 19.192C72.4498 19.192 71.9005 19.0693 71.4205 18.824C70.9512 18.5787 70.5778 18.232 70.3005 17.784L70.1245 19H68.6045V7.48H70.3005V12.296C70.5565 11.9227 70.9085 11.592 71.3565 11.304C71.8045 11.016 72.3805 10.872 73.0845 10.872C73.8525 10.872 74.5298 11.0533 75.1165 11.416C75.7032 11.7787 76.1618 12.2747 76.4925 12.904C76.8338 13.5333 77.0045 14.248 77.0045 15.048C77.0045 15.848 76.8338 16.5627 76.4925 17.192C76.1618 17.8107 75.7032 18.3013 75.1165 18.664C74.5298 19.016 73.8472 19.192 73.0685 19.192ZM72.7805 17.72C73.5058 17.72 74.1032 17.4747 74.5725 16.984C75.0418 16.4827 75.2765 15.832 75.2765 15.032C75.2765 14.5093 75.1698 14.0453 74.9565 13.64C74.7432 13.2347 74.4498 12.92 74.0765 12.696C73.7032 12.4613 73.2712 12.344 72.7805 12.344C72.0552 12.344 71.4578 12.5947 70.9885 13.096C70.5298 13.5973 70.3005 14.2427 70.3005 15.032C70.3005 15.832 70.5298 16.4827 70.9885 16.984C71.4578 17.4747 72.0552 17.72 72.7805 17.72ZM82.2309 19.192C81.4735 19.192 80.7909 19.0213 80.1829 18.68C79.5855 18.328 79.1109 17.8427 78.7589 17.224C78.4069 16.5947 78.2309 15.864 78.2309 15.032C78.2309 14.2 78.4069 13.4747 78.7589 12.856C79.1215 12.2267 79.6069 11.7413 80.2149 11.4C80.8229 11.048 81.5002 10.872 82.2469 10.872C83.0042 10.872 83.6815 11.048 84.2789 11.4C84.8869 11.7413 85.3669 12.2267 85.7189 12.856C86.0815 13.4747 86.2629 14.2 86.2629 15.032C86.2629 15.864 86.0815 16.5947 85.7189 17.224C85.3669 17.8427 84.8869 18.328 84.2789 18.68C83.6709 19.0213 82.9882 19.192 82.2309 19.192ZM82.2309 17.736C82.6362 17.736 83.0095 17.6347 83.3509 17.432C83.7029 17.2293 83.9855 16.9307 84.1989 16.536C84.4122 16.1307 84.5189 15.6293 84.5189 15.032C84.5189 14.4347 84.4122 13.9387 84.1989 13.544C83.9962 13.1387 83.7189 12.8347 83.3669 12.632C83.0255 12.4293 82.6522 12.328 82.2469 12.328C81.8415 12.328 81.4629 12.4293 81.1109 12.632C80.7695 12.8347 80.4922 13.1387 80.2789 13.544C80.0655 13.9387 79.9589 14.4347 79.9589 15.032C79.9589 15.6293 80.0655 16.1307 80.2789 16.536C80.4922 16.9307 80.7695 17.2293 81.1109 17.432C81.4522 17.6347 81.8255 17.736 82.2309 17.736ZM90.465 19.192C89.793 19.192 89.2383 19.08 88.801 18.856C88.3637 18.632 88.0383 18.3387 87.825 17.976C87.6117 17.6027 87.505 17.1973 87.505 16.76C87.505 15.992 87.8037 15.384 88.401 14.936C88.9983 14.488 89.8517 14.264 90.961 14.264H93.041V14.12C93.041 13.5013 92.8703 13.0373 92.529 12.728C92.1983 12.4187 91.7663 12.264 91.233 12.264C90.7637 12.264 90.353 12.3813 90.001 12.616C89.6597 12.84 89.4517 13.176 89.377 13.624H87.681C87.7343 13.048 87.9263 12.5573 88.257 12.152C88.5983 11.736 89.025 11.4213 89.537 11.208C90.0597 10.984 90.6303 10.872 91.249 10.872C92.3583 10.872 93.217 11.1653 93.825 11.752C94.433 12.328 94.737 13.1173 94.737 14.12V19H93.265L93.121 17.64C92.897 18.0773 92.5717 18.4453 92.145 18.744C91.7183 19.0427 91.1583 19.192 90.465 19.192ZM90.801 17.816C91.2597 17.816 91.6437 17.7093 91.953 17.496C92.273 17.272 92.5183 16.9787 92.689 16.616C92.8703 16.2533 92.9823 15.8533 93.025 15.416H91.137C90.465 15.416 89.985 15.5333 89.697 15.768C89.4197 16.0027 89.281 16.296 89.281 16.648C89.281 17.0107 89.4143 17.2987 89.681 17.512C89.9583 17.7147 90.3317 17.816 90.801 17.816ZM96.3945 19V11.064H97.9145L98.0585 12.568C98.3358 12.0453 98.7198 11.6347 99.2105 11.336C99.7118 11.0267 100.315 10.872 101.019 10.872V12.648H100.555C100.085 12.648 99.6638 12.728 99.2905 12.888C98.9278 13.0373 98.6345 13.2987 98.4105 13.672C98.1972 14.0347 98.0905 14.5413 98.0905 15.192V19H96.3945ZM105.55 19.192C104.782 19.192 104.105 19.0107 103.518 18.648C102.931 18.2853 102.473 17.7893 102.142 17.16C101.811 16.5307 101.646 15.816 101.646 15.016C101.646 14.216 101.811 13.5067 102.142 12.888C102.473 12.2587 102.931 11.768 103.518 11.416C104.115 11.0533 104.798 10.872 105.566 10.872C106.195 10.872 106.745 10.9947 107.214 11.24C107.694 11.4853 108.067 11.832 108.334 12.28V7.48H110.03V19H108.51L108.334 17.768C108.078 18.1413 107.726 18.472 107.278 18.76C106.83 19.048 106.254 19.192 105.55 19.192ZM105.854 17.72C106.579 17.72 107.171 17.4693 107.63 16.968C108.099 16.4667 108.334 15.8213 108.334 15.032C108.334 14.232 108.099 13.5867 107.63 13.096C107.171 12.5947 106.579 12.344 105.854 12.344C105.129 12.344 104.531 12.5947 104.062 13.096C103.593 13.5867 103.358 14.232 103.358 15.032C103.358 15.5547 103.465 16.0187 103.678 16.424C103.891 16.8293 104.185 17.1493 104.558 17.384C104.942 17.608 105.374 17.72 105.854 17.72Z" fill="#566474"/>
</svg>
