<svg width="110" height="28" viewBox="0 0 110 28" fill="none" xmlns="http://www.w3.org/2000/svg">
<path d="M8.66669 2.02533H4.00002C3.6464 2.02533 3.30726 2.16025 3.05721 2.40042C2.80716 2.64059 2.66669 2.96633 2.66669 3.30598V13.5512C2.66669 13.8908 2.80716 14.2165 3.05721 14.4567C3.30726 14.6969 3.6464 14.8318 4.00002 14.8318H12C12.3536 14.8318 12.6928 14.6969 12.9428 14.4567C13.1929 14.2165 13.3334 13.8908 13.3334 13.5512V6.5076L8.66669 2.02533Z" stroke="#566474" stroke-linecap="round" stroke-linejoin="round"/>
<path d="M8.66669 2.02533V6.5076H13.3334" stroke="#566474" stroke-linecap="round" stroke-linejoin="round"/>
<path d="M32.184 19V7.8H33.528V19H32.184ZM35.5028 19V11.064H36.7188L36.7988 12.488C37.0548 11.9867 37.4228 11.592 37.9028 11.304C38.3828 11.016 38.9268 10.872 39.5348 10.872C40.4734 10.872 41.2201 11.16 41.7748 11.736C42.3401 12.3013 42.6228 13.176 42.6228 14.36V19H41.2788V14.504C41.2788 12.8507 40.5961 12.024 39.2308 12.024C38.5481 12.024 37.9774 12.2747 37.5188 12.776C37.0708 13.2667 36.8468 13.9707 36.8468 14.888V19H35.5028ZM47.475 19C46.7497 19 46.179 18.824 45.763 18.472C45.347 18.12 45.139 17.4853 45.139 16.568V12.2H43.763V11.064H45.139L45.315 9.16H46.483V11.064H48.819V12.2H46.483V16.568C46.483 17.0693 46.5843 17.4107 46.787 17.592C46.9897 17.7627 47.347 17.848 47.859 17.848H48.691V19H47.475ZM53.5558 19.192C52.7984 19.192 52.1264 19.0213 51.5398 18.68C50.9531 18.328 50.4891 17.8427 50.1478 17.224C49.8171 16.6053 49.6518 15.8747 49.6518 15.032C49.6518 14.2 49.8171 13.4747 50.1478 12.856C50.4784 12.2267 50.9371 11.7413 51.5238 11.4C52.1211 11.048 52.8091 10.872 53.5878 10.872C54.3558 10.872 55.0171 11.048 55.5718 11.4C56.1371 11.7413 56.5691 12.1947 56.8678 12.76C57.1664 13.3253 57.3158 13.9333 57.3158 14.584C57.3158 14.7013 57.3104 14.8187 57.2998 14.936C57.2998 15.0533 57.2998 15.1867 57.2998 15.336H50.9798C51.0118 15.944 51.1504 16.4507 51.3958 16.856C51.6518 17.2507 51.9664 17.5493 52.3398 17.752C52.7238 17.9547 53.1291 18.056 53.5558 18.056C54.1104 18.056 54.5744 17.928 54.9478 17.672C55.3211 17.416 55.5931 17.0693 55.7638 16.632H57.0918C56.8784 17.368 56.4678 17.9813 55.8598 18.472C55.2624 18.952 54.4944 19.192 53.5558 19.192ZM53.5558 12.008C52.9158 12.008 52.3451 12.2053 51.8438 12.6C51.3531 12.984 51.0704 13.5493 50.9958 14.296H55.9878C55.9558 13.5813 55.7104 13.0213 55.2518 12.616C54.7931 12.2107 54.2278 12.008 53.5558 12.008ZM58.7771 19V11.064H59.9931L60.1051 12.584C60.3505 12.0613 60.7238 11.6453 61.2251 11.336C61.7265 11.0267 62.3451 10.872 63.0811 10.872V12.28H62.7131C62.2438 12.28 61.8118 12.3653 61.4171 12.536C61.0225 12.696 60.7078 12.9733 60.4731 13.368C60.2385 13.7627 60.1211 14.3067 60.1211 15V19H58.7771ZM64.2696 19V11.064H65.4856L65.5656 12.488C65.8216 11.9867 66.1896 11.592 66.6696 11.304C67.1496 11.016 67.6936 10.872 68.3016 10.872C69.2403 10.872 69.987 11.16 70.5416 11.736C71.107 12.3013 71.3896 13.176 71.3896 14.36V19H70.0456V14.504C70.0456 12.8507 69.363 12.024 67.9976 12.024C67.315 12.024 66.7443 12.2747 66.2856 12.776C65.8376 13.2667 65.6136 13.9707 65.6136 14.888V19H64.2696ZM76.1459 19.192C75.1965 19.192 74.4072 18.952 73.7779 18.472C73.1485 17.992 72.7805 17.3413 72.6739 16.52H74.0499C74.1352 16.936 74.3539 17.2987 74.7059 17.608C75.0685 17.9067 75.5539 18.056 76.1619 18.056C76.7272 18.056 77.1432 17.9387 77.4099 17.704C77.6765 17.4587 77.8099 17.1707 77.8099 16.84C77.8099 16.36 77.6339 16.04 77.2819 15.88C76.9405 15.72 76.4552 15.576 75.8259 15.448C75.3992 15.3627 74.9725 15.24 74.5459 15.08C74.1192 14.92 73.7619 14.696 73.4739 14.408C73.1859 14.1093 73.0419 13.72 73.0419 13.24C73.0419 12.5467 73.2979 11.9813 73.8099 11.544C74.3325 11.096 75.0365 10.872 75.9219 10.872C76.7645 10.872 77.4525 11.0853 77.9859 11.512C78.5299 11.928 78.8445 12.5253 78.9299 13.304H77.6019C77.5485 12.8987 77.3725 12.584 77.0739 12.36C76.7859 12.1253 76.3965 12.008 75.9059 12.008C75.4259 12.008 75.0525 12.1093 74.7859 12.312C74.5299 12.5147 74.4019 12.7813 74.4019 13.112C74.4019 13.432 74.5672 13.6827 74.8979 13.864C75.2392 14.0453 75.6979 14.2 76.2739 14.328C76.7645 14.4347 77.2285 14.568 77.6659 14.728C78.1139 14.8773 78.4765 15.1067 78.7539 15.416C79.0419 15.7147 79.1859 16.152 79.1859 16.728C79.1965 17.4427 78.9245 18.0347 78.3699 18.504C77.8259 18.9627 77.0845 19.192 76.1459 19.192ZM80.7859 19V7.48H82.1299V12.424C82.3965 11.9333 82.7752 11.5547 83.2659 11.288C83.7565 11.0107 84.2899 10.872 84.8659 10.872C85.7832 10.872 86.5192 11.16 87.0739 11.736C87.6285 12.3013 87.9059 13.176 87.9059 14.36V19H86.5779V14.504C86.5779 12.8507 85.9112 12.024 84.5779 12.024C83.8845 12.024 83.3032 12.2747 82.8339 12.776C82.3645 13.2667 82.1299 13.9707 82.1299 14.888V19H80.7859ZM90.4381 9.304C90.1715 9.304 89.9475 9.21867 89.7661 9.048C89.5955 8.86667 89.5101 8.64267 89.5101 8.376C89.5101 8.12 89.5955 7.90667 89.7661 7.736C89.9475 7.56533 90.1715 7.48 90.4381 7.48C90.6941 7.48 90.9128 7.56533 91.0941 7.736C91.2755 7.90667 91.3661 8.12 91.3661 8.376C91.3661 8.64267 91.2755 8.86667 91.0941 9.048C90.9128 9.21867 90.6941 9.304 90.4381 9.304ZM89.7661 19V11.064H91.1101V19H89.7661ZM93.1302 22.52V11.064H94.3462L94.4742 12.376C94.7302 11.992 95.0929 11.6453 95.5622 11.336C96.0422 11.0267 96.6502 10.872 97.3862 10.872C98.1756 10.872 98.8636 11.0533 99.4502 11.416C100.037 11.7787 100.49 12.2747 100.81 12.904C101.141 13.5333 101.306 14.248 101.306 15.048C101.306 15.848 101.141 16.5627 100.81 17.192C100.49 17.8107 100.032 18.3013 99.4342 18.664C98.8476 19.016 98.1596 19.192 97.3702 19.192C96.7196 19.192 96.1382 19.0587 95.6262 18.792C95.1249 18.5253 94.7409 18.152 94.4742 17.672V22.52H93.1302ZM97.2262 18.024C97.7596 18.024 98.2289 17.9013 98.6342 17.656C99.0396 17.4 99.3596 17.048 99.5942 16.6C99.8289 16.152 99.9462 15.6293 99.9462 15.032C99.9462 14.4347 99.8289 13.912 99.5942 13.464C99.3596 13.016 99.0396 12.6693 98.6342 12.424C98.2289 12.168 97.7596 12.04 97.2262 12.04C96.6929 12.04 96.2236 12.168 95.8182 12.424C95.4129 12.6693 95.0929 13.016 94.8582 13.464C94.6236 13.912 94.5062 14.4347 94.5062 15.032C94.5062 15.6293 94.6236 16.152 94.8582 16.6C95.0929 17.048 95.4129 17.4 95.8182 17.656C96.2236 17.9013 96.6929 18.024 97.2262 18.024ZM105.897 19.192C104.948 19.192 104.158 18.952 103.529 18.472C102.9 17.992 102.532 17.3413 102.425 16.52H103.801C103.886 16.936 104.105 17.2987 104.457 17.608C104.82 17.9067 105.305 18.056 105.913 18.056C106.478 18.056 106.894 17.9387 107.161 17.704C107.428 17.4587 107.561 17.1707 107.561 16.84C107.561 16.36 107.385 16.04 107.033 15.88C106.692 15.72 106.206 15.576 105.577 15.448C105.15 15.3627 104.724 15.24 104.297 15.08C103.87 14.92 103.513 14.696 103.225 14.408C102.937 14.1093 102.793 13.72 102.793 13.24C102.793 12.5467 103.049 11.9813 103.561 11.544C104.084 11.096 104.788 10.872 105.673 10.872C106.516 10.872 107.204 11.0853 107.737 11.512C108.281 11.928 108.596 12.5253 108.681 13.304H107.353C107.3 12.8987 107.124 12.584 106.825 12.36C106.537 12.1253 106.148 12.008 105.657 12.008C105.177 12.008 104.804 12.1093 104.537 12.312C104.281 12.5147 104.153 12.7813 104.153 13.112C104.153 13.432 104.318 13.6827 104.649 13.864C104.99 14.0453 105.449 14.2 106.025 14.328C106.516 14.4347 106.98 14.568 107.417 14.728C107.865 14.8773 108.228 15.1067 108.505 15.416C108.793 15.7147 108.937 16.152 108.937 16.728C108.948 17.4427 108.676 18.0347 108.121 18.504C107.577 18.9627 106.836 19.192 105.897 19.192Z" fill="#566474"/>
</svg>
